<?xml version="1.0" standalone="no"?>
<!DOCTYPE svg PUBLIC "-//W3C//DTD SVG 20010904//EN"
 "http://www.w3.org/TR/2001/REC-SVG-20010904/DTD/svg10.dtd">
<svg version="1.0" xmlns="http://www.w3.org/2000/svg"
 width="1024.000000pt" height="1024.000000pt" viewBox="0 0 1024.000000 1024.000000"
 preserveAspectRatio="xMidYMid meet">

<g transform="translate(0.000000,1024.000000) scale(0.100000,-0.100000)"
fill="#000000" stroke="none">
<path d="M0 5120 l0 -5120 5120 0 5120 0 0 5120 0 5120 -5120 0 -5120 0 0
-5120z m5475 3360 c484 -287 781 -460 1265 -740 250 -145 565 -328 700 -408
135 -80 332 -196 437 -257 106 -62 200 -118 209 -126 10 -8 25 -32 35 -54 18
-38 19 -117 19 -1710 0 -1119 -4 -1682 -10 -1707 -23 -80 -36 -90 -700 -483
-524 -310 -705 -417 -1125 -665 -198 -117 -526 -312 -729 -433 l-369 -221 -62
0 c-61 0 -67 3 -221 93 -88 52 -359 211 -604 354 -245 143 -521 306 -615 362
-93 56 -330 196 -525 310 -634 371 -1018 604 -1039 631 -12 15 -25 43 -30 63
-5 20 -11 759 -14 1696 -6 1584 -5 1662 12 1700 10 22 27 47 37 56 34 30 219
140 1004 599 1155 674 1279 747 1599 938 162 97 311 179 330 182 20 4 50 5 66
2 17 -2 165 -84 330 -182z"/>
<path d="M5085 8326 c-11 -8 -213 -125 -450 -262 -236 -136 -590 -341 -785
-454 -749 -437 -1210 -706 -1333 -779 l-127 -76 -3 -1576 -2 -1576 355 -208
c195 -114 450 -263 565 -330 116 -67 264 -155 330 -195 198 -120 727 -434
1105 -655 195 -115 367 -216 382 -227 14 -10 29 -18 32 -18 3 0 6 188 6 419
l0 419 -92 53 c-256 146 -1348 781 -1513 880 -105 62 -280 165 -389 230 -110
65 -205 124 -212 131 -10 10 -14 237 -20 1098 -8 1184 -11 1114 48 1166 12 11
194 119 403 239 209 119 649 375 978 567 l597 350 0 43 c0 168 219 239 292 94
14 -25 18 -58 18 -129 0 -111 -19 -163 -71 -203 -30 -22 -474 -281 -1124 -656
-126 -73 -370 -214 -541 -313 l-311 -180 -6 -597 c-4 -328 -7 -756 -8 -951 l0
-355 193 -108 c106 -59 245 -138 308 -176 63 -38 239 -140 390 -226 151 -87
480 -277 729 -423 347 -202 459 -262 470 -255 77 48 1407 847 1509 907 l132
78 -2 537 -3 536 -595 -4 c-327 -1 -597 -5 -600 -8 -3 -2 -6 -199 -8 -436 -2
-238 -5 -438 -7 -444 -5 -15 -261 -19 -283 -5 -10 7 -12 202 -10 985 l3 976
22 22 c26 27 96 35 208 24 l75 -7 0 -404 0 -404 595 0 595 0 0 405 0 405 160
0 160 0 0 -1147 c0 -632 -3 -1158 -6 -1170 -4 -16 -61 -54 -198 -134 -186
-110 -484 -284 -891 -523 -110 -65 -316 -188 -457 -274 l-258 -157 0 -348 c0
-191 3 -346 8 -344 4 3 72 44 152 92 352 212 2016 1203 2183 1300 l67 39 -2
1591 -3 1590 -470 268 c-432 247 -1537 888 -2039 1184 -115 68 -214 123 -220
122 -6 0 -20 -6 -31 -13z m-91 -2107 c80 -63 72 -193 -15 -244 -32 -19 -57
-20 -549 -25 l-515 -5 -62 -35 -63 -35 0 -615 0 -616 72 -55 71 -54 506 0
c491 0 507 -1 541 -20 92 -54 91 -195 -1 -250 -33 -19 -55 -20 -562 -23 -291
-2 -544 -1 -562 2 -44 9 -333 219 -345 252 -14 35 -14 1523 0 1539 11 13 295
189 320 198 8 3 268 6 576 6 555 1 562 1 588 -20z"/>
</g>
</svg>
