<svg xmlns="http://www.w3.org/2000/svg" viewBox="0 0 100 100" width="100" height="100">
  <defs>
    <linearGradient id="g" x1="0%" y1="0%" x2="100%" y2="100%">
      <stop offset="0%" style="stop-color:#6c5ce7"/>
      <stop offset="100%" style="stop-color:#fd79a8"/>
    </linearGradient>
  </defs>
  
  <!-- Fondo -->
  <rect width="100" height="100" rx="20" fill="#2d2d2d"/>
  
  <!-- Borde gradiente -->
  <rect width="100" height="100" rx="20" fill="none" stroke="url(#g)" stroke-width="3"/>
  
  <!-- LETRA C -->
  <path d="M 30,25 C 22,25 18,29 18,37 L 18,63 C 18,71 22,75 30,75 L 38,75 L 38,68 L 30,68 C 28,68 26,66 26,63 L 26,37 C 26,34 28,32 30,32 L 38,32 L 38,25 Z" 
        fill="#ffffff"/>
  
  <!-- LETRA H -->
  <!-- Línea izquierda -->
  <rect x="48" y="25" width="8" height="50" fill="#ffffff"/>
  
  <!-- Barra horizontal con gradiente -->
  <rect x="48" y="46" width="26" height="8" fill="url(#g)"/>
  
  <!-- Línea derecha -->
  <rect x="66" y="25" width="8" height="50" fill="#ffffff"/>
</svg>
